# xmcd
#
# Track frame offsets:
#	150
#	15321
#	32718
#	53301
#	67908
#	82721
#	98776
#	116372
#	133881
#	147643
#	167069
#	184920
#
# Disc length: 2647 seconds
#
# Revision: 1
# Processed by: cddbd v1.5.2PL0 Copyright (c) Steve Scherf et al.
# Submitted via: audiograbber 1.83.01
#
DISCID=920a550c
DTITLE=Jill - Droomparadijs
DYEAR=1999
DGENRE=Hollands
TTITLE0=Jill - Droomparadijs
TTITLE1=Jill - jij gelooft in de liefde
TTITLE2=Jill - Toen wij samen waren
TTITLE3=Jill - Ik heb genoten
TTITLE4=Jill - Een dalletje
TTITLE5=Jill - Geef mij nou maar weer de schuld
TTITLE6=Jill - Alleen is maar alleen
TTITLE7=Jill - Liefde kan eeuwig zijn
TTITLE8=Jill - De hele nacht alleen met jou
TTITLE9=Jill - Voor altijd bij elkaar
TTITLE10=Jill - Als je kiest
TTITLE11=Jill - Jij bent de eerste
EXTD=
EXTT0=
EXTT1=
EXTT2=
EXTT3=
EXTT4=
EXTT5=
EXTT6=
EXTT7=
EXTT8=
EXTT9=
EXTT10=
EXTT11=
PLAYORDER=
